<svg width="21" height="21" viewBox="0 0 21 21" fill="none" xmlns="http://www.w3.org/2000/svg">
<path fill-rule="evenodd" clip-rule="evenodd" d="M5.44498 0.00416761C4.33385 0.0900095 3.32935 0.448262 2.46333 1.06752C2.15757 1.28617 2.01469 1.40858 1.71583 1.70791C1.23136 2.1931 0.905535 2.64248 0.613623 3.22812C0.273444 3.91055 0.0843503 4.59513 0.017596 5.38589C-0.00642361 5.6704 -0.00558349 15.328 0.0184712 15.6249C0.155166 17.3111 0.998515 18.835 2.35855 19.8534C3.17777 20.4669 4.15755 20.8509 5.21739 20.9741C5.51471 21.0086 15.4943 21.0086 15.7916 20.9741C17.1869 20.812 18.4235 20.204 19.378 19.2109C20.1767 18.3798 20.7051 17.3503 20.9101 16.2256C21.004 15.7106 21 15.9654 21 10.4993C21 5.03312 21.004 5.28794 20.9101 4.77298C20.7413 3.847 20.3538 2.98878 19.7557 2.21629C19.574 1.98167 19.0516 1.45136 18.8409 1.28763C17.9199 0.572104 17.0389 0.197723 15.8879 0.0328866C15.6935 0.00504318 15.2996 0.00262664 10.6008 0.000437687C7.80843 -0.000858171 5.48831 0.000822898 5.44498 0.00416761ZM17.8038 2.3676C18.4611 2.53722 18.835 3.25033 18.6026 3.8909C18.5431 4.05486 18.4583 4.18639 18.3286 4.31616C17.8694 4.77545 17.1452 4.77545 16.686 4.31616C16.2842 3.91423 16.2281 3.31446 16.5475 2.83672C16.817 2.43373 17.3249 2.24404 17.8038 2.3676ZM11.2661 4.71027C11.723 4.77582 12.1417 4.88038 12.5384 5.02804C14.4064 5.72325 15.7993 7.33743 16.2108 9.28371C16.3085 9.74607 16.3244 9.91586 16.3244 10.4993C16.3244 11.0568 16.3087 11.2422 16.2281 11.6356C15.9757 12.8675 15.3584 13.9654 14.4523 14.7942C14.0286 15.1818 13.5927 15.4785 13.0693 15.7357C12.2363 16.145 11.436 16.3306 10.5045 16.3306C9.57302 16.3306 8.7727 16.145 7.93974 15.7357C7.56897 15.5536 7.31032 15.3954 6.99569 15.1586C5.74633 14.2183 4.93802 12.8378 4.71794 11.2686C4.67419 10.9566 4.66456 10.2372 4.69968 9.90388C4.95032 7.52498 6.59747 5.55503 8.89413 4.88744C9.14629 4.81413 9.57183 4.73043 9.83049 4.70323C9.93641 4.69211 10.0388 4.6802 10.0581 4.67681C10.1576 4.65923 11.0904 4.68506 11.2661 4.71027ZM10.0687 7.02487C9.46764 7.09761 8.8587 7.34889 8.3599 7.72994C8.21134 7.84343 7.91123 8.1378 7.78604 8.29281C6.92867 9.35438 6.76326 10.8143 7.36204 12.0353C8.40479 14.1617 11.208 14.6642 12.9167 13.031C13.6984 12.2838 14.0932 11.2271 13.988 10.164C13.9204 9.48154 13.6516 8.82417 13.2227 8.29222C13.0999 8.1399 12.8013 7.84753 12.6488 7.73025C11.9156 7.16631 10.9902 6.91332 10.0687 7.02487Z" fill="white"/>
</svg>
