<svg width="16" height="16" viewBox="0 0 16 16" fill="none" xmlns="http://www.w3.org/2000/svg">
<g clip-path="url(#clip0)">
<path d="M8 16C12.4183 16 16 12.4183 16 8C16 3.58172 12.4183 0 8 0C3.58172 0 0 3.58172 0 8C0 12.4183 3.58172 16 8 16Z" fill="#EEEEEE"/>
<path d="M7.65327 7.99999H16.0001C16.0001 7.27811 15.9064 6.57811 15.7251 5.91248H7.65327V7.99999ZM7.65327 3.82498H14.8251C14.3363 3.02835 13.7124 2.323 12.9814 1.7406H7.65327V3.82498ZM8.00015 16C9.8814 16 11.6126 15.35 12.9814 14.2594H3.0189C4.43334 15.3887 6.1902 16.0026 8.00015 16V16ZM1.17515 12.175H14.8251C15.2236 11.5258 15.5267 10.8228 15.7251 10.0875H0.275146C0.47364 10.8228 0.776736 11.5258 1.17515 12.175V12.175Z" fill="#D80027"/>
<path d="M3.70625 1.25H4.43437L3.75625 1.74063L4.01562 2.54063L3.3375 2.04688L2.65937 2.54063L2.88438 1.85312C2.28576 2.35097 1.76259 2.93308 1.33125 3.58125H1.56562L1.13437 3.89375C1.06697 4.00672 1.00237 4.12134 0.940625 4.2375L1.14688 4.86875L0.7625 4.5875C0.666126 4.79199 0.578546 5.00052 0.5 5.2125L0.728125 5.90938H1.5625L0.8875 6.40625L1.14688 7.20312L0.46875 6.70625L0.0625 7.00313C0.0211236 7.33381 0.000250361 7.66674 0 8H8V0C6.41875 0 4.94687 0.459375 3.70625 1.25ZM4.01562 7.2L3.3375 6.70625L2.65937 7.2L2.91875 6.40312L2.24062 5.90625H3.07812L3.3375 5.10938L3.59687 5.90625H4.43437L3.75625 6.40625L4.01562 7.20312V7.2ZM3.75625 4.075L4.01562 4.86875L3.3375 4.37813L2.65937 4.86875L2.91875 4.07188L2.24062 3.58125H3.07812L3.3375 2.78125L3.59687 3.58125H4.43437L3.75625 4.07188V4.075ZM6.88438 7.2L6.20625 6.70625L5.52812 7.2L5.7875 6.40312L5.10938 5.90938H5.94688L6.20625 5.1125L6.46562 5.90938H7.30312L6.625 6.40625L6.88438 7.20312V7.2ZM6.625 4.075L6.88438 4.86875L6.20625 4.37813L5.52812 4.86875L5.7875 4.07188L5.10938 3.58125H5.94688L6.20625 2.78125L6.46562 3.58125H7.30312L6.625 4.07188V4.075ZM6.625 1.74063L6.88438 2.54063L6.20625 2.04688L5.53125 2.54063L5.79063 1.74063L5.10938 1.25H5.94688L6.20625 0.453125L6.46875 1.25H7.30625L6.625 1.74063Z" fill="#0052B4"/>
</g>
<defs>
<clipPath id="clip0">
<rect width="16" height="16" fill="white"/>
</clipPath>
</defs>
</svg>
