<svg width="16" height="16" viewBox="0 0 16 16" fill="none" xmlns="http://www.w3.org/2000/svg">
<g clip-path="url(#clip0)">
<path d="M8 16C12.4183 16 16 12.4183 16 8C16 3.58172 12.4183 0 8 0C3.58172 0 0 3.58172 0 8C0 12.4183 3.58172 16 8 16Z" fill="#EEEEEE"/>
<path d="M15.5 10.7812C16.167 8.98707 16.167 7.01293 15.5 5.21875H0.500004C-0.166749 7.01298 -0.166749 8.98702 0.500004 10.7812L8 11.4781L15.5 10.7812Z" fill="#0052B4"/>
<path d="M8 16C9.6334 15.9998 11.2276 15.4996 12.5683 14.5667C13.9091 13.6337 14.9321 12.3128 15.5 10.7812H0.5C1.06786 12.3128 2.09091 13.6337 3.43166 14.5667C4.77241 15.4996 6.3666 15.9998 8 16V16Z" fill="#D80027"/>
</g>
<defs>
<clipPath id="clip0">
<rect width="16" height="16" fill="white"/>
</clipPath>
</defs>
</svg>
