<svg display="none" xmlns="http://www.w3.org/2000/svg">
    <symbol id="mail_icon" viewBox="0 0 25 22">
        <g>
            <path fill-rule="evenodd" clip-rule="evenodd" d="M8.88008 0.0141081C6.86252 0.121406 5.02221 0.713146 3.48097 1.75017C2.98607 2.08315 2.63225 2.3747 2.1907 2.81338C1.74251 3.25866 1.4793 3.5749 1.16263 4.04866C0.159133 5.54997 -0.207495 7.2857 0.112469 9.02049C0.361134 10.3687 1.02365 11.6039 2.10388 12.7333L2.35421 12.995L2.2583 14.1159C2.20556 14.7324 2.12571 15.6679 2.08083 16.1948C2.03598 16.7217 2.00956 17.1528 2.02212 17.1528C2.03468 17.1528 3.00241 16.7083 4.17262 16.165L6.3003 15.1771L6.69034 15.2746C7.58508 15.4982 8.19333 15.5775 9.16438 15.597L9.89539 15.6118L9.84773 15.3862C9.59215 14.1767 9.73479 12.9913 10.2688 11.8869C10.7416 10.9091 11.4382 10.0914 12.3811 9.40717C13.5058 8.59109 14.7854 8.09406 16.3252 7.87515C16.878 7.79656 18.2308 7.80026 18.7443 7.88178L18.8441 7.89761L18.8277 7.5194C18.7625 6.02172 18.1807 4.57956 17.1444 3.34716C16.2836 2.32361 15.0591 1.43218 13.7503 0.876428C12.2462 0.237765 10.4973 -0.071898 8.88008 0.0141081ZM6.63364 4.7317C7.07971 4.83591 7.48159 5.15432 7.67525 5.557C7.81345 5.8444 7.84317 5.99649 7.8268 6.33247C7.81039 6.66927 7.75027 6.85508 7.57214 7.1199C7.22011 7.64312 6.5774 7.90416 5.95716 7.77585C5.73315 7.72948 5.40857 7.56881 5.23628 7.41898C5.07043 7.27473 4.87052 6.97977 4.79621 6.76958C4.72476 6.5675 4.69742 6.12493 4.74337 5.91374C4.82031 5.56009 5.09356 5.15904 5.39162 4.96237C5.75674 4.72143 6.22076 4.63524 6.63364 4.7317ZM12.9493 4.74231C13.2332 4.81451 13.4327 4.92948 13.6551 5.149C13.969 5.45881 14.1195 5.81068 14.1218 6.24025C14.1232 6.51479 14.0834 6.68183 13.9531 6.94825C13.6534 7.56087 12.9447 7.91147 12.2726 7.77953C11.6708 7.66139 11.1902 7.21357 11.0368 6.628C10.9879 6.4415 10.9882 6.06441 11.0374 5.87125C11.1772 5.32218 11.639 4.86466 12.1862 4.73315C12.4094 4.6795 12.7168 4.68321 12.9493 4.74231ZM17.3831 9.28944C15.3657 9.44214 13.5129 10.3196 12.3363 11.6793C11.4707 12.6797 11.0244 13.8323 11.0244 15.0674C11.0244 15.6332 11.099 16.0884 11.2804 16.6289C11.7627 18.0658 12.8994 19.2887 14.4579 20.0471C15.2935 20.4538 15.9909 20.6624 16.9724 20.7992C17.4249 20.8623 18.6146 20.8622 19.0656 20.799C19.4231 20.7489 19.9259 20.6497 20.1685 20.5814L20.3292 20.5362L21.9086 21.2681C22.7772 21.6706 23.4973 22 23.5088 22C23.5203 22 23.5245 21.9629 23.518 21.9175C23.5115 21.8721 23.4489 21.1805 23.3787 20.3806L23.2513 18.9261L23.4879 18.672C24.2752 17.8266 24.744 16.9222 24.9266 15.8966C24.9882 15.55 25.0187 14.9026 24.9878 14.5962C24.8679 13.4098 24.3493 12.3418 23.4456 11.4201C22.2257 10.1758 20.5294 9.42999 18.5934 9.28686C18.186 9.25676 17.8042 9.25757 17.3831 9.28944ZM16.0652 12.8129C16.8737 13.0894 17.109 14.1324 16.4972 14.7278C16.2646 14.954 16.0198 15.0518 15.6832 15.0526C15.3544 15.0535 15.0993 14.9517 14.8692 14.7278C14.4081 14.279 14.4081 13.5298 14.8692 13.0811C15.1869 12.7719 15.6451 12.6692 16.0652 12.8129ZM20.5786 12.7743C21.0246 12.8683 21.3601 13.1922 21.4782 13.6428C21.5739 14.008 21.4676 14.3963 21.1908 14.6936C20.9362 14.967 20.5278 15.1092 20.1736 15.0478C19.5857 14.9461 19.1933 14.4883 19.1933 13.9044C19.1933 13.3409 19.5802 12.8708 20.1304 12.766C20.308 12.7322 20.3854 12.7336 20.5786 12.7743Z"/>
        </g>
    </symbol>
    <symbol id="instagram_icon" viewBox="0 0 511 511">
        <g>
           <path d="m510.949219 150.5c-1.199219-27.199219-5.597657-45.898438-11.898438-62.101562-6.5-17.199219-16.5-32.597657-29.601562-45.398438-12.800781-13-28.300781-23.101562-45.300781-29.5-16.296876-6.300781-34.898438-10.699219-62.097657-11.898438-27.402343-1.300781-36.101562-1.601562-105.601562-1.601562s-78.199219.300781-105.5 1.5c-27.199219 1.199219-45.898438 5.601562-62.097657 11.898438-17.203124 6.5-32.601562 16.5-45.402343 29.601562-13 12.800781-23.097657 28.300781-29.5 45.300781-6.300781 16.300781-10.699219 34.898438-11.898438 62.097657-1.300781 27.402343-1.601562 36.101562-1.601562 105.601562s.300781 78.199219 1.5 105.5c1.199219 27.199219 5.601562 45.898438 11.902343 62.101562 6.5 17.199219 16.597657 32.597657 29.597657 45.398438 12.800781 13 28.300781 23.101562 45.300781 29.5 16.300781 6.300781 34.898438 10.699219 62.101562 11.898438 27.296876 1.203124 36 1.5 105.5 1.5s78.199219-.296876 105.5-1.5c27.199219-1.199219 45.898438-5.597657 62.097657-11.898438 34.402343-13.300781 61.601562-40.5 74.902343-74.898438 6.296876-16.300781 10.699219-34.902343 11.898438-62.101562 1.199219-27.300781 1.5-36 1.5-105.5s-.101562-78.199219-1.300781-105.5zm-46.097657 209c-1.101562 25-5.300781 38.5-8.800781 47.5-8.601562 22.300781-26.300781 40-48.601562 48.601562-9 3.5-22.597657 7.699219-47.5 8.796876-27 1.203124-35.097657 1.5-103.398438 1.5s-76.5-.296876-103.402343-1.5c-25-1.097657-38.5-5.296876-47.5-8.796876-11.097657-4.101562-21.199219-10.601562-29.398438-19.101562-8.5-8.300781-15-18.300781-19.101562-29.398438-3.5-9-7.699219-22.601562-8.796876-47.5-1.203124-27-1.5-35.101562-1.5-103.402343s.296876-76.5 1.5-103.398438c1.097657-25 5.296876-38.5 8.796876-47.5 4.101562-11.101562 10.601562-21.199219 19.203124-29.402343 8.296876-8.5 18.296876-15 29.398438-19.097657 9-3.5 22.601562-7.699219 47.5-8.800781 27-1.199219 35.101562-1.5 103.398438-1.5 68.402343 0 76.5.300781 103.402343 1.5 25 1.101562 38.5 5.300781 47.5 8.800781 11.097657 4.097657 21.199219 10.597657 29.398438 19.097657 8.5 8.300781 15 18.300781 19.101562 29.402343 3.5 9 7.699219 22.597657 8.800781 47.5 1.199219 27 1.5 35.097657 1.5 103.398438s-.300781 76.300781-1.5 103.300781zm0 0"/><path d="m256.449219 124.5c-72.597657 0-131.5 58.898438-131.5 131.5s58.902343 131.5 131.5 131.5c72.601562 0 131.5-58.898438 131.5-131.5s-58.898438-131.5-131.5-131.5zm0 216.800781c-47.097657 0-85.300781-38.199219-85.300781-85.300781s38.203124-85.300781 85.300781-85.300781c47.101562 0 85.300781 38.199219 85.300781 85.300781s-38.199219 85.300781-85.300781 85.300781zm0 0"/><path d="m423.851562 119.300781c0 16.953125-13.746093 30.699219-30.703124 30.699219-16.953126 0-30.699219-13.746094-30.699219-30.699219 0-16.957031 13.746093-30.699219 30.699219-30.699219 16.957031 0 30.703124 13.742188 30.703124 30.699219zm0 0"/>
        </g>
    </symbol>
    <symbol id="telegram_icon" viewBox="0 0 24 24">
        <g>
            <path d="m9.417 15.181-.397 5.584c.568 0 .814-.244 1.109-.537l2.663-2.545 5.518 4.041c1.012.564 1.725.267 1.998-.931l3.622-16.972.001-.001c.321-1.496-.541-2.081-1.527-1.714l-21.29 8.151c-1.453.564-1.431 1.374-.247 1.741l5.443 1.693 12.643-7.911c.595-.394 1.136-.176.691.218z"/>
        </g>
    </symbol>
</svg>